<svg width="20.000000" height="20.000000" viewBox="0 0 20 20" fill="none" xmlns="http://www.w3.org/2000/svg" xmlns:xlink="http://www.w3.org/1999/xlink">
	<desc>
			Created with Pixso.
	</desc>
	<defs>
		<clipPath id="clip105_260">
			<rect id="ic:round-anchor" rx="-0.500000" width="19.000000" height="19.000000" transform="translate(0.500000 0.500000)" fill="white" fill-opacity="0"/>
		</clipPath>
	</defs>
	<rect id="ic:round-anchor" rx="-0.500000" width="19.000000" height="19.000000" transform="translate(0.500000 0.500000)" fill="#FFFFFF" fill-opacity="0"/>
	<g clip-path="url(#clip105_260)">
		<path id="Vector" d="M10.83 7.5L10.83 6.51C11.8 6.16 12.5 5.25 12.5 4.16C12.5 2.79 11.37 1.66 10 1.66C8.62 1.66 7.5 2.79 7.5 4.16C7.5 5.25 8.2 6.16 9.16 6.51L9.16 7.5L7.5 7.5C7.04 7.5 6.66 7.87 6.66 8.33C6.66 8.79 7.04 9.16 7.5 9.16L9.16 9.16L9.16 16.6C7.31 16.32 5.34 15.2 4.54 13.79L5.49 12.84C5.67 12.65 5.64 12.36 5.45 12.21L3.16 10.5C3.1 10.45 3.03 10.42 2.95 10.41C2.87 10.41 2.79 10.42 2.73 10.46C2.66 10.49 2.6 10.54 2.56 10.61C2.52 10.68 2.5 10.75 2.5 10.83L2.5 12.5C2.5 15.73 6.6 18.33 10 18.33C13.4 18.33 17.5 15.73 17.5 12.5L17.5 10.83C17.5 10.75 17.47 10.68 17.43 10.61C17.39 10.54 17.33 10.49 17.26 10.46C17.2 10.42 17.12 10.41 17.04 10.41C16.96 10.42 16.89 10.45 16.83 10.5L14.55 12.2C14.35 12.35 14.32 12.65 14.5 12.83L15.45 13.78C14.65 15.19 12.68 16.31 10.83 16.59L10.83 9.16L12.5 9.16C12.95 9.16 13.33 8.79 13.33 8.33C13.33 7.87 12.95 7.5 12.5 7.5L10.83 7.5ZM10 3.33C10.45 3.33 10.83 3.7 10.83 4.16C10.83 4.62 10.45 5 10 5C9.54 5 9.16 4.62 9.16 4.16C9.16 3.7 9.54 3.33 10 3.33Z" fill="#595B5E" fill-opacity="1.000000" fill-rule="nonzero"/>
	</g>
</svg>
