<svg width="23.000000" height="34.000000" viewBox="0 0 23 34" fill="none" xmlns="http://www.w3.org/2000/svg" xmlns:xlink="http://www.w3.org/1999/xlink">
	<desc>
			Created with Pixso.
	</desc>
	<defs>
		<clipPath id="clip105_282">
			<rect id="Layer_1" rx="-0.427924" width="22.144152" height="33.144150" transform="translate(0.427924 0.427924)" fill="white" fill-opacity="0"/>
		</clipPath>
	</defs>
	<rect id="Layer_1" rx="-0.427924" width="22.144152" height="33.144150" transform="translate(0.427924 0.427924)" fill="#FFFFFF" fill-opacity="0"/>
	<g clip-path="url(#clip105_282)">
		<path id="Vector" d="M13.52 29.21C15.19 28.25 16.88 27.31 18.52 26.3C18.83 26.11 19.03 25.64 19.13 25.26C19.32 24.6 19.06 24.16 18.24 24.15C17.95 24.13 17.67 24.1 17.39 24.05L17.24 23.75L22.95 19.7C22.95 22.06 23.07 24.17 22.9 26.27C22.8 27.49 21.77 28.39 20.66 29.03C17.89 30.67 15.09 32.29 12.27 33.85C12.04 33.95 11.79 34 11.54 34C11.28 34 11.03 33.95 10.81 33.85C7.98 32.29 5.18 30.68 2.41 29.03C0.78 28.06 -0.11 26.69 0 24.78C0.1 23.18 0.02 21.56 0.02 19.65L5.8 23.7L5.71 24C5.45 24.06 5.19 24.11 4.93 24.15C3.97 24.23 3.67 24.6 3.99 25.44C4.12 25.78 4.32 26.19 4.63 26.36C6.24 27.34 7.91 28.26 9.78 29.33L9.78 23.07L13.21 23.07L13.21 29.01L13.52 29.21Z" fill="#254769" fill-opacity="1.000000" fill-rule="nonzero"/>
		<path id="Vector" d="M3.74 16.67C3.14 14.61 2.53 12.54 1.92 10.48C1.74 9.87 2.04 9.7 2.64 9.7C4.65 9.71 6.67 9.68 8.68 9.71C9.54 9.73 9.94 9.45 9.86 8.63C9.83 8.22 9.83 7.81 9.86 7.41C9.92 6.96 9.87 6.51 9.72 6.08C9.57 5.65 9.32 5.26 8.99 4.93C7.94 3.79 7.91 2.63 8.68 1.46C9.04 0.93 9.57 0.51 10.19 0.26C10.81 0.01 11.5 -0.06 12.16 0.06C13.59 0.32 14.58 1.28 14.84 2.65C15.04 3.61 14.64 4.41 13.98 5.05C12.68 6.32 13.34 7.83 13.29 9.24C13.29 9.39 13.91 9.67 14.24 9.68C16.22 9.72 18.2 9.72 20.18 9.69C21.03 9.68 21.35 9.86 21.07 10.72C20.44 12.62 19.9 14.55 19.12 16.46C19.12 15.77 19.1 15.08 19.12 14.4C19.14 13.72 18.74 13.47 18.05 13.48C16.81 13.5 15.57 13.52 14.33 13.48C13.51 13.46 13.17 13.75 13.19 14.53C13.23 15.89 13.2 17.26 13.2 18.69L9.85 18.69C9.85 17.4 9.85 16.11 9.85 14.81C9.85 13.51 9.82 13.5 8.44 13.5C7.27 13.5 6.09 13.51 4.91 13.5C4.24 13.5 3.93 13.77 3.94 14.4C3.95 15.15 3.94 15.92 3.94 16.68L3.74 16.67ZM11.53 4.3C11.7 4.3 11.87 4.27 12.02 4.21C12.18 4.15 12.32 4.06 12.43 3.95C12.55 3.84 12.64 3.71 12.7 3.56C12.77 3.41 12.79 3.26 12.79 3.1C12.75 2.41 12.32 2 11.58 1.95C11.41 1.94 11.24 1.96 11.08 2.02C10.93 2.07 10.78 2.15 10.66 2.26C10.54 2.37 10.44 2.5 10.37 2.64C10.3 2.79 10.27 2.94 10.27 3.1C10.27 3.25 10.3 3.41 10.36 3.56C10.42 3.7 10.51 3.83 10.63 3.95C10.75 4.06 10.89 4.15 11.04 4.21C11.2 4.27 11.36 4.3 11.53 4.3Z" fill="#254769" fill-opacity="1.000000" fill-rule="nonzero"/>
		<path id="Vector" d="M11.53 4.3C11.37 4.3 11.2 4.27 11.05 4.21C10.89 4.15 10.75 4.06 10.64 3.94C10.52 3.83 10.43 3.7 10.37 3.55C10.3 3.41 10.27 3.25 10.28 3.1C10.28 2.94 10.31 2.79 10.38 2.64C10.45 2.5 10.54 2.37 10.67 2.26C10.79 2.15 10.93 2.07 11.09 2.02C11.25 1.96 11.42 1.94 11.59 1.95C12.32 2 12.75 2.41 12.8 3.1C12.8 3.26 12.77 3.42 12.71 3.56C12.65 3.71 12.56 3.84 12.44 3.95C12.32 4.07 12.18 4.15 12.03 4.21C11.87 4.27 11.7 4.3 11.53 4.3Z" fill="#254769" fill-opacity="1.000000" fill-rule="nonzero"/>
	</g>
</svg>
